<svg id="Layer_1" data-name="Layer 1" xmlns="http://www.w3.org/2000/svg" viewBox="0 0 145.1 160.24">
							<defs>
								<style>
									.cls-1 {
										fill: #8f252b; // darker red
									}
						
									.cls-2 {
										fill: #efb945; // yellow
									}
						
									.cls-3 {
										fill: #baa13b; // chartruese
									}
						
									.cls-4 {
										fill: #c0838f; // pink
									}
						
									.cls-5 {
										fill: #9fbdb9; // blue
									}
						
									.cls-6 {
										fill: #372215; // brown
									}
						
									.cls-7 {
										fill: #ac5f27; // orange
									}
						
									.cls-8 {
										fill: #7b6c2b; // green
									}
						
									.cls-9 {
										fill: #4d7d86; // darker blue
									}
								</style>
							</defs>
							<g>
								<path class="cls-1" d="M5.58,133.93c-.72-.46-1.47-.98-2.36-1.63l-1.32-.97v27.18h35.82v-16.24h-.81c-15.73-.29-23.4-3.28-31.33-8.34Z"></path>
								<path class="cls-4" d="M28.01,140.57h.83v-.83c.02-44.32,0-124.34,0-136.63v-.83H1.9v106.94c1.61,12.38,13.95,31.35,26.11,31.35Z"></path>
								<path class="cls-8" d="M87.59,57.71c1.17-.01,6.51.03,7.73.16l.18.02.17-.06c3.38-1.12,6.34-3.86,8.56-7.92,3.35-6.14,4.04-12.36,4.04-19.83,0-12.45-6.99-23.85-17.01-27.74l-.14-.05-4.36-.03v55.45s.84,0,.84,0Z"></path>
								<path class="cls-3" d="M57.88,67.69c2.1-1.46,4.35-2.78,6.68-3.94l.46-.23v-.51c0-34.83,0-54.99.02-59.92v-.83s-14.68.02-14.68.02v71.86l1.41-1.38c1.92-1.88,3.98-3.59,6.12-5.07Z"></path>
								<path class="cls-9" d="M57.88,134.65c4.67-5.18,7.14-13.75,7.14-24.77v-44.87s-1.22.65-1.22.65c-2.76,1.48-5.38,3.22-7.79,5.18h0c-3.79,3.09-6.92,6.61-9.57,10.79-.07.11-.13.21-.18.32-.04.07-.07.13-.11.2-2.1,3.41-3.78,7.22-4.98,11.33-.39,1.34-.73,2.7-1.02,4.04-.26,1.23-.39,2.48-.52,3.69-.08.79-.17,1.62-.29,2.41-.69,4.5-.25,8.99.34,13.18.58,4.13,1.76,8.33,3.52,12.49.47,1.1.98,2.12,1.42,2.98.47.9,1.74,3.07,1.9,3.32h.02c.32.74,1.14,1.77,1.44,2.13h0c.09.13.11.26.14.52.04.35.1.84.48,1.32l.33.42.52-.13c3.58-.88,5.71-2.19,8.43-5.21Z"></path>
								<path class="cls-7" d="M105.62,2.29l3.45,1.58c2.78,1.27,5.37,2.88,7.91,4.91,4.33,3.46,7.45,12.19,7.87,18.29.48,7.09-.17,12.85-4.92,19.67-3.53,5.07-8.65,8.45-16.61,10.95l-2.91.92,4.43,1.01c1.09.25,2.11.49,3.03.68,5.49,1.13,10.79,2.98,15.76,5.48,4.44,2.24,8.47,5.09,11.98,8.47,2.55,2.46,4.77,5.22,6.6,8.19l1.53,2.48V2.29h-38.13Z"></path>
								<path class="cls-5" d="M122.21,137.62c3.78-6.17,6.22-13.14,7.25-20.72.5-3.71.63-7.67.37-12.12-.27-4.67-.93-8.54-2.08-12.19-.93-2.96-2.25-6.83-4.22-10.54-3.92-7.38-9.4-13.19-16.28-17.27-4.17-2.47-8.67-4.07-13.37-4.76-1.77-.26-4.07-.39-6.3-.4h-.83s0,41.05,0,41.05l-.12.11-.02.34c-.49,8.13-2.74,15.23-6.68,21.11-4.51,6.71-10.62,11.82-18.15,15.18-3.97,1.77-6.59,2.76-9.86,3.3l-1.46.29,1.09,1.2c2.51,2.75,5.63,5.28,9.83,7.95,5.18,3.29,11.19,5.53,18.38,6.84,2.42.44,4.51.66,6.35.66.56,0,1.09-.02,1.6-.06,3.36.06,6.26-.42,8.95-.93,3.98-.75,7.82-2.33,11.75-4.83,5.52-3.51,10.16-8.3,13.78-14.22Z"></path>
								<path class="cls-2" d="M135.33,143.16c-3.94,3.76-8.56,6.85-13.72,9.17-4.4,1.99-8.94,3.48-13.47,4.45l-8.35,1.73h43.96v-26.53l-1.53,2.53c-1.98,3.26-4.29,6.17-6.88,8.64Z"></path>
							</g>
							<path class="cls-6" d="M.06,160.24h145.05V0H.06v.48h-.06v158.85h.06v.9ZM125.27,26.52c-.41-6-3.46-15.11-8.18-18.88-2.62-2.1-5.3-3.74-8.08-5.01h33.51v78.89c-1.87-3.03-4.11-5.82-6.73-8.35-3.61-3.49-7.68-6.35-12.18-8.62-5.08-2.56-10.39-4.4-15.96-5.55-1.32-.27-2.83-.64-4.47-1.01,6.72-2.11,12.81-5.19,17.04-11.27,4.61-6.63,5.6-12.31,5.06-20.2ZM142.52,134.45v22.74h-35.1c.16-.03.32-.06.48-.09,4.72-1.01,9.26-2.53,13.64-4.51,5.16-2.33,9.86-5.42,13.95-9.33,2.75-2.63,5.06-5.59,7.02-8.81ZM103.1,49.02c-1.87,3.42-4.55,6.36-8.09,7.53-1.31-.14-6.75-.17-7.82-.16V2.6s3.37.02,3.37.02c9.32,3.62,16.48,14.41,16.48,26.97,0,6.93-.57,13.27-3.94,19.43ZM87.18,59.96c1.94,0,4.24.11,6.18.39,4.67.68,9.02,2.25,13.07,4.65,6.94,4.11,12.19,9.83,15.97,16.94,1.76,3.32,3.04,6.82,4.16,10.4,1.23,3.92,1.8,7.89,2.04,11.99.23,4.02.17,8.01-.37,11.96-.99,7.26-3.27,14.09-7.14,20.4-3.49,5.69-7.95,10.4-13.52,13.95-3.49,2.22-7.28,3.93-11.46,4.71-2.84.53-5.64.98-8.82.91-2.42.19-5.14-.1-7.78-.58-6.4-1.16-12.51-3.17-18.08-6.72-3.54-2.25-6.85-4.72-9.67-7.81-.04-.04-.07-.09-.11-.13,3.34-.54,5.99-1.54,10.06-3.36,7.72-3.44,13.89-8.6,18.51-15.48,4.05-6.03,6.32-13.21,6.82-21.52l.14-.13v-40.59ZM56.13,70.99c2.41-1.96,4.97-3.65,7.66-5.09,0,23.07,0,43.49,0,43.49,0,10.52-2.31,19.1-6.92,24.22-2.52,2.8-3.87,4.06-7.4,4.93-.46-.6-2.65-3.85-2.64-3.87-.13-.21-1.4-2.37-1.87-3.26-.49-.95-.97-1.91-1.39-2.92-1.68-3.98-2.88-8.1-3.47-12.29-.6-4.25-1.01-8.59-.34-12.94.31-2,.38-4.05.8-6.05.29-1.35.62-2.68,1-3.99,1.14-3.9,2.73-7.63,4.89-11.13.1-.17.18-.34.29-.51,2.56-4.03,5.67-7.55,9.4-10.59ZM50.77,71.69V2.63h7.86v-.02h5.17c-.02,6.04-.02,34.09-.02,59.93-2.34,1.16-4.6,2.49-6.78,4-2.24,1.55-4.31,3.28-6.23,5.16ZM27.6,2.63c0,12.29.02,92.31,0,136.63-11.54,0-23.69-18.32-25.28-30.63V2.63h25.28ZM4.73,134.14c7.41,4.73,15.07,8.16,31.76,8.46v14.6H2.32v-24.72c.79.58,1.58,1.14,2.4,1.66Z"></path>
						</svg>